<svg xmlns="http://www.w3.org/2000/svg" viewBox="0 0 150 150">
  <g id="clutch-logomark" fill="none" fill-rule="evenodd">
    <g id="white" fill="#FFFFFF" fill-rule="nonzero">
      <path id="Path" d="M21.847.934C34.765.257 47.79.065 60.77.012c3.874-.016 5.81-.024 7.02 1.18C69 2.397 69 4.338 69 8.22v133.56c0 3.882 0 5.823-1.21 7.027-1.21 1.205-3.146 1.197-7.02 1.181-12.98-.053-26.005-.245-38.923-.923C7.23 148.3 1.71 142.763.944 128.167.017 110.515 0 92.665 0 75c0-17.666.017-35.516.944-53.168C1.7 7.44 7.448 1.69 21.847.934z"/>
      <path id="Path" d="M128.223 149.065c-13.872.728-27.866.895-41.796.933-3.873.01-5.81.016-7.018-1.189-1.208-1.204-1.208-3.144-1.208-7.023V104.26c0-11.625 0-17.438 3.613-21.049C85.426 79.6 91.24 79.6 102.87 79.6h22.53c11.705 0 17.558 0 21.183 3.682 3.624 3.682 3.531 9.449 3.344 20.982-.127 7.818-.361 15.64-.795 23.904-.774 14.731-6.203 20.127-20.91 20.898z"/>
      <path id="Path" d="M149.896 45.717c.188 11.546.282 17.32-3.342 21.002-3.625 3.683-9.475 3.683-21.175 3.683h-22.508c-11.63 0-17.445 0-21.057-3.612C78.2 63.18 78.2 57.367 78.2 45.742V8.214c0-3.88 0-5.819 1.208-7.024C80.617-.014 82.554-.009 86.427.002c13.93.038 27.924.204 41.796.932 14.602.767 20.142 6.288 20.91 20.898.4 7.608.63 15.74.763 23.885z"/>
    </g>
  </g>
</svg>
