<svg viewBox="0 0 512 512" xmlns="http://www.w3.org/2000/svg"><g fill="#fff"><path d="m477.867 341.333c18.851 0 34.133 15.282 34.133 34.134v102.4c0 18.851-15.282 34.133-34.133 34.133h-102.4c-18.852 0-34.134-15.282-34.134-34.133v-102.4c0-18.852 15.282-34.134 34.134-34.134z"/><path d="m136.533 0c18.852 0 34.134 15.282 34.134 34.133v102.4c0 18.852-15.282 34.134-34.134 34.134h-102.4c-18.851 0-34.133-15.282-34.133-34.134v-102.4c0-18.851 15.282-34.133 34.133-34.133z"/><path d="m502.003 180.664a34.133 34.133 0 0 0 9.997-24.136v-122.395c0-18.851-15.282-34.133-34.133-34.133h-102.4c-18.852 0-34.134 15.282-34.134 34.133v102.4c0 18.852-15.282 34.134-34.133 34.134h-122.395a34.133 34.133 0 0 0 -24.136 9.997l-150.672 150.672a34.133 34.133 0 0 0 -9.997 24.136v122.395c0 18.851 15.282 34.133 34.133 34.133h102.4c18.852 0 34.134-15.282 34.134-34.133v-102.4c0-18.852 15.282-34.134 34.133-34.134h122.395a34.133 34.133 0 0 0 24.136-9.997z"/></g></svg>